<?xml version="1.0" encoding="UTF-8" standalone="no"?>
<!DOCTYPE svg PUBLIC "-//W3C//DTD SVG 1.1//EN" "http://www.w3.org/Graphics/SVG/1.1/DTD/svg11.dtd">
<svg width="100%" height="100%" viewBox="0 0 1620 2160" version="1.1" xmlns="http://www.w3.org/2000/svg" xmlns:xlink="http://www.w3.org/1999/xlink" xml:space="preserve" xmlns:serif="http://www.serif.com/" style="fill-rule:evenodd;clip-rule:evenodd;stroke-miterlimit:2;">
    <g transform="matrix(2.72727,0,0,2.56837,810,1080)">
        <g transform="matrix(1,0,0,1,-297,-420.5)">
            <g>
                <g transform="matrix(1,0,0,1,-595,0)">
                    <path d="M614.84,65.763L1169.16,65.763" style="fill:none;stroke:black;stroke-width:0.7px;"/>
                    <path d="M614.84,59.243L1169.16,59.243" style="fill:none;stroke:black;stroke-width:0.7px;"/>
                    <path d="M614.84,52.722L1169.16,52.722" style="fill:none;stroke:black;stroke-width:0.7px;"/>
                    <path d="M614.84,46.203L1169.16,46.203" style="fill:none;stroke:black;stroke-width:0.7px;"/>
                    <path d="M614.84,39.683L1169.16,39.683" style="fill:none;stroke:black;stroke-width:0.7px;"/>
                </g>
                <g transform="matrix(1,0,0,1,-595,0)">
                    <path d="M614.84,114.799L1169.16,114.799" style="fill:none;stroke:black;stroke-width:0.7px;"/>
                    <path d="M614.84,108.279L1169.16,108.279" style="fill:none;stroke:black;stroke-width:0.7px;"/>
                    <path d="M614.84,101.759L1169.16,101.759" style="fill:none;stroke:black;stroke-width:0.7px;"/>
                    <path d="M614.84,95.239L1169.16,95.239" style="fill:none;stroke:black;stroke-width:0.7px;"/>
                    <path d="M614.84,88.719L1169.16,88.719" style="fill:none;stroke:black;stroke-width:0.7px;"/>
                </g>
                <g transform="matrix(1,0,0,1,-595,0)">
                    <path d="M614.84,163.836L1169.16,163.836" style="fill:none;stroke:black;stroke-width:0.7px;"/>
                    <path d="M614.84,157.316L1169.16,157.316" style="fill:none;stroke:black;stroke-width:0.7px;"/>
                    <path d="M614.84,150.796L1169.16,150.796" style="fill:none;stroke:black;stroke-width:0.7px;"/>
                    <path d="M614.84,144.276L1169.16,144.276" style="fill:none;stroke:black;stroke-width:0.7px;"/>
                    <path d="M614.84,137.756L1169.16,137.756" style="fill:none;stroke:black;stroke-width:0.7px;"/>
                </g>
                <g transform="matrix(1,0,0,1,-595,0)">
                    <path d="M614.84,212.873L1169.16,212.873" style="fill:none;stroke:black;stroke-width:0.7px;"/>
                    <path d="M614.84,206.353L1169.16,206.353" style="fill:none;stroke:black;stroke-width:0.7px;"/>
                    <path d="M614.84,199.833L1169.16,199.833" style="fill:none;stroke:black;stroke-width:0.7px;"/>
                    <path d="M614.84,193.313L1169.16,193.313" style="fill:none;stroke:black;stroke-width:0.7px;"/>
                    <path d="M614.84,186.793L1169.16,186.793" style="fill:none;stroke:black;stroke-width:0.7px;"/>
                </g>
                <g transform="matrix(1,0,0,1,-595,0)">
                    <path d="M614.84,261.91L1169.16,261.91" style="fill:none;stroke:black;stroke-width:0.7px;"/>
                    <path d="M614.84,255.39L1169.16,255.39" style="fill:none;stroke:black;stroke-width:0.7px;"/>
                    <path d="M614.84,248.87L1169.16,248.87" style="fill:none;stroke:black;stroke-width:0.7px;"/>
                    <path d="M614.84,242.35L1169.16,242.35" style="fill:none;stroke:black;stroke-width:0.7px;"/>
                    <path d="M614.84,235.83L1169.16,235.83" style="fill:none;stroke:black;stroke-width:0.7px;"/>
                </g>
                <g transform="matrix(1,0,0,1,-595,0)">
                    <path d="M614.84,310.947L1169.16,310.947" style="fill:none;stroke:black;stroke-width:0.7px;"/>
                    <path d="M614.84,304.427L1169.16,304.427" style="fill:none;stroke:black;stroke-width:0.7px;"/>
                    <path d="M614.84,297.907L1169.16,297.907" style="fill:none;stroke:black;stroke-width:0.7px;"/>
                    <path d="M614.84,291.387L1169.16,291.387" style="fill:none;stroke:black;stroke-width:0.7px;"/>
                    <path d="M614.84,284.867L1169.16,284.867" style="fill:none;stroke:black;stroke-width:0.7px;"/>
                </g>
                <g transform="matrix(1,0,0,1,-595,0)">
                    <path d="M614.84,359.983L1169.16,359.983" style="fill:none;stroke:black;stroke-width:0.7px;"/>
                    <path d="M614.84,353.463L1169.16,353.463" style="fill:none;stroke:black;stroke-width:0.7px;"/>
                    <path d="M614.84,346.943L1169.16,346.943" style="fill:none;stroke:black;stroke-width:0.7px;"/>
                    <path d="M614.84,340.423L1169.16,340.423" style="fill:none;stroke:black;stroke-width:0.7px;"/>
                    <path d="M614.84,333.903L1169.16,333.903" style="fill:none;stroke:black;stroke-width:0.7px;"/>
                </g>
                <g transform="matrix(1,0,0,1,-595,0)">
                    <path d="M614.84,409.02L1169.16,409.02" style="fill:none;stroke:black;stroke-width:0.7px;"/>
                    <path d="M614.84,402.5L1169.16,402.5" style="fill:none;stroke:black;stroke-width:0.7px;"/>
                    <path d="M614.84,395.98L1169.16,395.98" style="fill:none;stroke:black;stroke-width:0.7px;"/>
                    <path d="M614.84,389.46L1169.16,389.46" style="fill:none;stroke:black;stroke-width:0.7px;"/>
                    <path d="M614.84,382.94L1169.16,382.94" style="fill:none;stroke:black;stroke-width:0.7px;"/>
                </g>
                <g transform="matrix(1,0,0,1,-595,0)">
                    <path d="M614.84,458.057L1169.16,458.057" style="fill:none;stroke:black;stroke-width:0.7px;"/>
                    <path d="M614.84,451.537L1169.16,451.537" style="fill:none;stroke:black;stroke-width:0.7px;"/>
                    <path d="M614.84,445.017L1169.16,445.017" style="fill:none;stroke:black;stroke-width:0.7px;"/>
                    <path d="M614.84,438.497L1169.16,438.497" style="fill:none;stroke:black;stroke-width:0.7px;"/>
                    <path d="M614.84,431.977L1169.16,431.977" style="fill:none;stroke:black;stroke-width:0.7px;"/>
                </g>
                <g transform="matrix(1,0,0,1,-595,0)">
                    <path d="M614.84,507.094L1169.16,507.094" style="fill:none;stroke:black;stroke-width:0.7px;"/>
                    <path d="M614.84,500.574L1169.16,500.574" style="fill:none;stroke:black;stroke-width:0.7px;"/>
                    <path d="M614.84,494.054L1169.16,494.054" style="fill:none;stroke:black;stroke-width:0.7px;"/>
                    <path d="M614.84,487.534L1169.16,487.534" style="fill:none;stroke:black;stroke-width:0.7px;"/>
                    <path d="M614.84,481.014L1169.16,481.014" style="fill:none;stroke:black;stroke-width:0.7px;"/>
                </g>
                <g transform="matrix(1,0,0,1,-595,0)">
                    <path d="M614.84,556.131L1169.16,556.131" style="fill:none;stroke:black;stroke-width:0.7px;"/>
                    <path d="M614.84,549.611L1169.16,549.611" style="fill:none;stroke:black;stroke-width:0.7px;"/>
                    <path d="M614.84,543.091L1169.16,543.091" style="fill:none;stroke:black;stroke-width:0.7px;"/>
                    <path d="M614.84,536.571L1169.16,536.571" style="fill:none;stroke:black;stroke-width:0.7px;"/>
                    <path d="M614.84,530.051L1169.16,530.051" style="fill:none;stroke:black;stroke-width:0.7px;"/>
                </g>
                <g transform="matrix(1,0,0,1,-595,0)">
                    <path d="M614.84,605.168L1169.16,605.168" style="fill:none;stroke:black;stroke-width:0.7px;"/>
                    <path d="M614.84,598.648L1169.16,598.648" style="fill:none;stroke:black;stroke-width:0.7px;"/>
                    <path d="M614.84,592.128L1169.16,592.128" style="fill:none;stroke:black;stroke-width:0.7px;"/>
                    <path d="M614.84,585.608L1169.16,585.608" style="fill:none;stroke:black;stroke-width:0.7px;"/>
                    <path d="M614.84,579.088L1169.16,579.088" style="fill:none;stroke:black;stroke-width:0.7px;"/>
                </g>
                <g transform="matrix(1,0,0,1,-595,0)">
                    <path d="M614.84,654.205L1169.16,654.205" style="fill:none;stroke:black;stroke-width:0.7px;"/>
                    <path d="M614.84,647.685L1169.16,647.685" style="fill:none;stroke:black;stroke-width:0.7px;"/>
                    <path d="M614.84,641.165L1169.16,641.165" style="fill:none;stroke:black;stroke-width:0.7px;"/>
                    <path d="M614.84,634.645L1169.16,634.645" style="fill:none;stroke:black;stroke-width:0.7px;"/>
                    <path d="M614.84,628.125L1169.16,628.125" style="fill:none;stroke:black;stroke-width:0.7px;"/>
                </g>
                <g transform="matrix(1,0,0,1,-595,0)">
                    <path d="M614.84,703.241L1169.16,703.241" style="fill:none;stroke:black;stroke-width:0.7px;"/>
                    <path d="M614.84,696.721L1169.16,696.721" style="fill:none;stroke:black;stroke-width:0.7px;"/>
                    <path d="M614.84,690.201L1169.16,690.201" style="fill:none;stroke:black;stroke-width:0.7px;"/>
                    <path d="M614.84,683.681L1169.16,683.681" style="fill:none;stroke:black;stroke-width:0.7px;"/>
                    <path d="M614.84,677.161L1169.16,677.161" style="fill:none;stroke:black;stroke-width:0.7px;"/>
                </g>
                <g transform="matrix(1,0,0,1,-595,0)">
                    <path d="M614.84,752.278L1169.16,752.278" style="fill:none;stroke:black;stroke-width:0.7px;"/>
                    <path d="M614.84,745.758L1169.16,745.758" style="fill:none;stroke:black;stroke-width:0.7px;"/>
                    <path d="M614.84,739.238L1169.16,739.238" style="fill:none;stroke:black;stroke-width:0.7px;"/>
                    <path d="M614.84,732.718L1169.16,732.718" style="fill:none;stroke:black;stroke-width:0.7px;"/>
                    <path d="M614.84,726.198L1169.16,726.198" style="fill:none;stroke:black;stroke-width:0.7px;"/>
                </g>
                <g transform="matrix(1,0,0,1,-595,0)">
                    <path d="M614.84,801.315L1169.16,801.315" style="fill:none;stroke:black;stroke-width:0.7px;"/>
                    <path d="M614.84,794.795L1169.16,794.795" style="fill:none;stroke:black;stroke-width:0.7px;"/>
                    <path d="M614.84,788.275L1169.16,788.275" style="fill:none;stroke:black;stroke-width:0.7px;"/>
                    <path d="M614.84,781.755L1169.16,781.755" style="fill:none;stroke:black;stroke-width:0.7px;"/>
                    <path d="M614.84,775.235L1169.16,775.235" style="fill:none;stroke:black;stroke-width:0.7px;"/>
                </g>
            </g>
        </g>
    </g>
</svg>
