<?xml version="1.0" encoding="UTF-8" standalone="no"?>
<!DOCTYPE svg PUBLIC "-//W3C//DTD SVG 1.1//EN" "http://www.w3.org/Graphics/SVG/1.1/DTD/svg11.dtd">
<svg width="100%" height="100%" viewBox="0 0 1620 2160" version="1.1" xmlns="http://www.w3.org/2000/svg" xmlns:xlink="http://www.w3.org/1999/xlink" xml:space="preserve" xmlns:serif="http://www.serif.com/" style="fill-rule:evenodd;clip-rule:evenodd;stroke-miterlimit:2;">
    <g transform="matrix(2.72727,0,0,2.56837,810,1080)">
        <g transform="matrix(1,0,0,1,-297,-420.5)">
            <g>
                <g transform="matrix(1,0,0,1,-3013,0)">
                    <path d="M3032.84,65.763L3587.16,65.763" style="fill:none;stroke:black;stroke-width:0.7px;"/>
                    <path d="M3032.84,59.243L3587.16,59.243" style="fill:none;stroke:black;stroke-width:0.7px;"/>
                    <path d="M3032.84,46.203L3587.16,46.203" style="fill:none;stroke:black;stroke-width:0.7px;"/>
                    <path d="M3032.84,52.722L3587.16,52.722" style="fill:none;stroke:black;stroke-width:0.7px;"/>
                    <path d="M3032.84,39.683L3587.16,39.683" style="fill:none;stroke:black;stroke-width:0.7px;"/>
                    <path d="M3177.35,39.52L3177.35,65.926" style="fill:none;stroke:black;stroke-width:0.7px;"/>
                    <path d="M3313.9,39.52L3313.9,65.926" style="fill:none;stroke:black;stroke-width:0.7px;"/>
                    <path d="M3450.45,39.52L3450.45,65.926" style="fill:none;stroke:black;stroke-width:0.7px;"/>
                    <path d="M3587,39.52L3587,65.926" style="fill:none;stroke:black;stroke-width:0.7px;"/>
                </g>
                <g transform="matrix(1,0,0,1,-3013,0)">
                    <path d="M3032.84,122.343L3587.16,122.343" style="fill:none;stroke:black;stroke-width:0.7px;"/>
                    <path d="M3032.84,115.823L3587.16,115.823" style="fill:none;stroke:black;stroke-width:0.7px;"/>
                    <path d="M3032.84,102.783L3587.16,102.783" style="fill:none;stroke:black;stroke-width:0.7px;"/>
                    <path d="M3032.84,109.303L3587.16,109.303" style="fill:none;stroke:black;stroke-width:0.7px;"/>
                    <path d="M3032.84,96.263L3587.16,96.263" style="fill:none;stroke:black;stroke-width:0.7px;"/>
                    <path d="M3177.35,96.101L3177.35,122.506" style="fill:none;stroke:black;stroke-width:0.7px;"/>
                    <path d="M3313.9,96.101L3313.9,122.506" style="fill:none;stroke:black;stroke-width:0.7px;"/>
                    <path d="M3450.45,96.101L3450.45,122.506" style="fill:none;stroke:black;stroke-width:0.7px;"/>
                    <path d="M3587,96.101L3587,122.506" style="fill:none;stroke:black;stroke-width:0.7px;"/>
                </g>
                <g transform="matrix(1,0,0,1,-3013,0)">
                    <path d="M3032.84,178.924L3587.16,178.924" style="fill:none;stroke:black;stroke-width:0.7px;"/>
                    <path d="M3032.84,172.404L3587.16,172.404" style="fill:none;stroke:black;stroke-width:0.7px;"/>
                    <path d="M3032.84,159.364L3587.16,159.364" style="fill:none;stroke:black;stroke-width:0.7px;"/>
                    <path d="M3032.84,165.884L3587.16,165.884" style="fill:none;stroke:black;stroke-width:0.7px;"/>
                    <path d="M3032.84,152.844L3587.16,152.844" style="fill:none;stroke:black;stroke-width:0.7px;"/>
                    <path d="M3177.35,152.681L3177.35,179.087" style="fill:none;stroke:black;stroke-width:0.7px;"/>
                    <path d="M3313.9,152.681L3313.9,179.087" style="fill:none;stroke:black;stroke-width:0.7px;"/>
                    <path d="M3450.45,152.681L3450.45,179.087" style="fill:none;stroke:black;stroke-width:0.7px;"/>
                    <path d="M3587,152.681L3587,179.087" style="fill:none;stroke:black;stroke-width:0.7px;"/>
                </g>
                <g transform="matrix(1,0,0,1,-3013,0)">
                    <path d="M3032.84,235.505L3587.16,235.505" style="fill:none;stroke:black;stroke-width:0.7px;"/>
                    <path d="M3032.84,228.985L3587.16,228.985" style="fill:none;stroke:black;stroke-width:0.7px;"/>
                    <path d="M3032.84,215.945L3587.16,215.945" style="fill:none;stroke:black;stroke-width:0.7px;"/>
                    <path d="M3032.84,222.465L3587.16,222.465" style="fill:none;stroke:black;stroke-width:0.7px;"/>
                    <path d="M3032.84,209.425L3587.16,209.425" style="fill:none;stroke:black;stroke-width:0.7px;"/>
                    <path d="M3177.35,209.262L3177.35,235.668" style="fill:none;stroke:black;stroke-width:0.7px;"/>
                    <path d="M3313.9,209.262L3313.9,235.668" style="fill:none;stroke:black;stroke-width:0.7px;"/>
                    <path d="M3450.45,209.262L3450.45,235.668" style="fill:none;stroke:black;stroke-width:0.7px;"/>
                    <path d="M3587,209.262L3587,235.668" style="fill:none;stroke:black;stroke-width:0.7px;"/>
                </g>
                <g transform="matrix(1,0,0,1,-3013,0)">
                    <path d="M3032.84,292.086L3587.16,292.086" style="fill:none;stroke:black;stroke-width:0.7px;"/>
                    <path d="M3032.84,285.566L3587.16,285.566" style="fill:none;stroke:black;stroke-width:0.7px;"/>
                    <path d="M3032.84,272.526L3587.16,272.526" style="fill:none;stroke:black;stroke-width:0.7px;"/>
                    <path d="M3032.84,279.046L3587.16,279.046" style="fill:none;stroke:black;stroke-width:0.7px;"/>
                    <path d="M3032.84,266.006L3587.16,266.006" style="fill:none;stroke:black;stroke-width:0.7px;"/>
                    <path d="M3177.35,265.843L3177.35,292.249" style="fill:none;stroke:black;stroke-width:0.7px;"/>
                    <path d="M3313.9,265.843L3313.9,292.249" style="fill:none;stroke:black;stroke-width:0.7px;"/>
                    <path d="M3450.45,265.843L3450.45,292.249" style="fill:none;stroke:black;stroke-width:0.7px;"/>
                    <path d="M3587,265.843L3587,292.249" style="fill:none;stroke:black;stroke-width:0.7px;"/>
                </g>
                <g transform="matrix(1,0,0,1,-3013,0)">
                    <path d="M3032.84,348.667L3587.16,348.667" style="fill:none;stroke:black;stroke-width:0.7px;"/>
                    <path d="M3032.84,342.147L3587.16,342.147" style="fill:none;stroke:black;stroke-width:0.7px;"/>
                    <path d="M3032.84,329.107L3587.16,329.107" style="fill:none;stroke:black;stroke-width:0.7px;"/>
                    <path d="M3032.84,335.627L3587.16,335.627" style="fill:none;stroke:black;stroke-width:0.7px;"/>
                    <path d="M3032.84,322.587L3587.16,322.587" style="fill:none;stroke:black;stroke-width:0.7px;"/>
                    <path d="M3177.35,322.424L3177.35,348.83" style="fill:none;stroke:black;stroke-width:0.7px;"/>
                    <path d="M3313.9,322.424L3313.9,348.83" style="fill:none;stroke:black;stroke-width:0.7px;"/>
                    <path d="M3450.45,322.424L3450.45,348.83" style="fill:none;stroke:black;stroke-width:0.7px;"/>
                    <path d="M3587,322.424L3587,348.83" style="fill:none;stroke:black;stroke-width:0.7px;"/>
                </g>
                <g transform="matrix(1,0,0,1,-3013,0)">
                    <path d="M3032.84,405.248L3587.16,405.248" style="fill:none;stroke:black;stroke-width:0.7px;"/>
                    <path d="M3032.84,398.728L3587.16,398.728" style="fill:none;stroke:black;stroke-width:0.7px;"/>
                    <path d="M3032.84,385.688L3587.16,385.688" style="fill:none;stroke:black;stroke-width:0.7px;"/>
                    <path d="M3032.84,392.208L3587.16,392.208" style="fill:none;stroke:black;stroke-width:0.7px;"/>
                    <path d="M3032.84,379.168L3587.16,379.168" style="fill:none;stroke:black;stroke-width:0.7px;"/>
                    <path d="M3177.35,379.005L3177.35,405.411" style="fill:none;stroke:black;stroke-width:0.7px;"/>
                    <path d="M3313.9,379.005L3313.9,405.411" style="fill:none;stroke:black;stroke-width:0.7px;"/>
                    <path d="M3450.45,379.005L3450.45,405.411" style="fill:none;stroke:black;stroke-width:0.7px;"/>
                    <path d="M3587,379.005L3587,405.411" style="fill:none;stroke:black;stroke-width:0.7px;"/>
                </g>
                <g transform="matrix(1,0,0,1,-3013,0)">
                    <path d="M3032.84,461.829L3587.16,461.829" style="fill:none;stroke:black;stroke-width:0.7px;"/>
                    <path d="M3032.84,455.309L3587.16,455.309" style="fill:none;stroke:black;stroke-width:0.7px;"/>
                    <path d="M3032.84,442.269L3587.16,442.269" style="fill:none;stroke:black;stroke-width:0.7px;"/>
                    <path d="M3032.84,448.789L3587.16,448.789" style="fill:none;stroke:black;stroke-width:0.7px;"/>
                    <path d="M3032.84,435.749L3587.16,435.749" style="fill:none;stroke:black;stroke-width:0.7px;"/>
                    <path d="M3177.35,435.586L3177.35,461.992" style="fill:none;stroke:black;stroke-width:0.7px;"/>
                    <path d="M3313.9,435.586L3313.9,461.992" style="fill:none;stroke:black;stroke-width:0.7px;"/>
                    <path d="M3450.45,435.586L3450.45,461.992" style="fill:none;stroke:black;stroke-width:0.7px;"/>
                    <path d="M3587,435.586L3587,461.992" style="fill:none;stroke:black;stroke-width:0.7px;"/>
                </g>
                <g transform="matrix(1,0,0,1,-3013,0)">
                    <path d="M3032.84,518.41L3587.16,518.41" style="fill:none;stroke:black;stroke-width:0.7px;"/>
                    <path d="M3032.84,511.89L3587.16,511.89" style="fill:none;stroke:black;stroke-width:0.7px;"/>
                    <path d="M3032.84,498.85L3587.16,498.85" style="fill:none;stroke:black;stroke-width:0.7px;"/>
                    <path d="M3032.84,505.37L3587.16,505.37" style="fill:none;stroke:black;stroke-width:0.7px;"/>
                    <path d="M3032.84,492.33L3587.16,492.33" style="fill:none;stroke:black;stroke-width:0.7px;"/>
                    <path d="M3177.35,492.167L3177.35,518.573" style="fill:none;stroke:black;stroke-width:0.7px;"/>
                    <path d="M3313.9,492.167L3313.9,518.573" style="fill:none;stroke:black;stroke-width:0.7px;"/>
                    <path d="M3450.45,492.167L3450.45,518.573" style="fill:none;stroke:black;stroke-width:0.7px;"/>
                    <path d="M3587,492.167L3587,518.573" style="fill:none;stroke:black;stroke-width:0.7px;"/>
                </g>
                <g transform="matrix(1,0,0,1,-3013,0)">
                    <path d="M3032.84,574.991L3587.16,574.991" style="fill:none;stroke:black;stroke-width:0.7px;"/>
                    <path d="M3032.84,568.471L3587.16,568.471" style="fill:none;stroke:black;stroke-width:0.7px;"/>
                    <path d="M3032.84,555.431L3587.16,555.431" style="fill:none;stroke:black;stroke-width:0.7px;"/>
                    <path d="M3032.84,561.951L3587.16,561.951" style="fill:none;stroke:black;stroke-width:0.7px;"/>
                    <path d="M3032.84,548.911L3587.16,548.911" style="fill:none;stroke:black;stroke-width:0.7px;"/>
                    <path d="M3177.35,548.748L3177.35,575.154" style="fill:none;stroke:black;stroke-width:0.7px;"/>
                    <path d="M3313.9,548.748L3313.9,575.154" style="fill:none;stroke:black;stroke-width:0.7px;"/>
                    <path d="M3450.45,548.748L3450.45,575.154" style="fill:none;stroke:black;stroke-width:0.7px;"/>
                    <path d="M3587,548.748L3587,575.154" style="fill:none;stroke:black;stroke-width:0.7px;"/>
                </g>
                <g transform="matrix(1,0,0,1,-3013,0)">
                    <path d="M3032.84,631.572L3587.16,631.572" style="fill:none;stroke:black;stroke-width:0.7px;"/>
                    <path d="M3032.84,625.052L3587.16,625.052" style="fill:none;stroke:black;stroke-width:0.7px;"/>
                    <path d="M3032.84,612.012L3587.16,612.012" style="fill:none;stroke:black;stroke-width:0.7px;"/>
                    <path d="M3032.84,618.532L3587.16,618.532" style="fill:none;stroke:black;stroke-width:0.7px;"/>
                    <path d="M3032.84,605.492L3587.16,605.492" style="fill:none;stroke:black;stroke-width:0.7px;"/>
                    <path d="M3177.35,605.329L3177.35,631.735" style="fill:none;stroke:black;stroke-width:0.7px;"/>
                    <path d="M3313.9,605.329L3313.9,631.735" style="fill:none;stroke:black;stroke-width:0.7px;"/>
                    <path d="M3450.45,605.329L3450.45,631.735" style="fill:none;stroke:black;stroke-width:0.7px;"/>
                    <path d="M3587,605.329L3587,631.735" style="fill:none;stroke:black;stroke-width:0.7px;"/>
                </g>
                <g transform="matrix(1,0,0,1,-3013,0)">
                    <path d="M3032.84,688.153L3587.16,688.153" style="fill:none;stroke:black;stroke-width:0.7px;"/>
                    <path d="M3032.84,681.633L3587.16,681.633" style="fill:none;stroke:black;stroke-width:0.7px;"/>
                    <path d="M3032.84,668.593L3587.16,668.593" style="fill:none;stroke:black;stroke-width:0.7px;"/>
                    <path d="M3032.84,675.113L3587.16,675.113" style="fill:none;stroke:black;stroke-width:0.7px;"/>
                    <path d="M3032.84,662.073L3587.16,662.073" style="fill:none;stroke:black;stroke-width:0.7px;"/>
                    <path d="M3177.35,661.91L3177.35,688.316" style="fill:none;stroke:black;stroke-width:0.7px;"/>
                    <path d="M3313.9,661.91L3313.9,688.316" style="fill:none;stroke:black;stroke-width:0.7px;"/>
                    <path d="M3450.45,661.91L3450.45,688.316" style="fill:none;stroke:black;stroke-width:0.7px;"/>
                    <path d="M3587,661.91L3587,688.316" style="fill:none;stroke:black;stroke-width:0.7px;"/>
                </g>
                <g transform="matrix(1,0,0,1,-3013,0)">
                    <path d="M3032.84,744.734L3587.16,744.734" style="fill:none;stroke:black;stroke-width:0.7px;"/>
                    <path d="M3032.84,738.214L3587.16,738.214" style="fill:none;stroke:black;stroke-width:0.7px;"/>
                    <path d="M3032.84,725.174L3587.16,725.174" style="fill:none;stroke:black;stroke-width:0.7px;"/>
                    <path d="M3032.84,731.694L3587.16,731.694" style="fill:none;stroke:black;stroke-width:0.7px;"/>
                    <path d="M3032.84,718.654L3587.16,718.654" style="fill:none;stroke:black;stroke-width:0.7px;"/>
                    <path d="M3177.35,718.491L3177.35,744.897" style="fill:none;stroke:black;stroke-width:0.7px;"/>
                    <path d="M3313.9,718.491L3313.9,744.897" style="fill:none;stroke:black;stroke-width:0.7px;"/>
                    <path d="M3450.45,718.491L3450.45,744.897" style="fill:none;stroke:black;stroke-width:0.7px;"/>
                    <path d="M3587,718.491L3587,744.897" style="fill:none;stroke:black;stroke-width:0.7px;"/>
                </g>
                <g transform="matrix(1,0,0,1,-3013,0)">
                    <path d="M3032.84,801.315L3587.16,801.315" style="fill:none;stroke:black;stroke-width:0.7px;"/>
                    <path d="M3032.84,794.795L3587.16,794.795" style="fill:none;stroke:black;stroke-width:0.7px;"/>
                    <path d="M3032.84,781.755L3587.16,781.755" style="fill:none;stroke:black;stroke-width:0.7px;"/>
                    <path d="M3032.84,788.275L3587.16,788.275" style="fill:none;stroke:black;stroke-width:0.7px;"/>
                    <path d="M3032.84,775.235L3587.16,775.235" style="fill:none;stroke:black;stroke-width:0.7px;"/>
                    <path d="M3177.35,775.072L3177.35,801.478" style="fill:none;stroke:black;stroke-width:0.7px;"/>
                    <path d="M3313.9,775.072L3313.9,801.478" style="fill:none;stroke:black;stroke-width:0.7px;"/>
                    <path d="M3450.45,775.072L3450.45,801.478" style="fill:none;stroke:black;stroke-width:0.7px;"/>
                    <path d="M3587,775.072L3587,801.478" style="fill:none;stroke:black;stroke-width:0.7px;"/>
                </g>
            </g>
        </g>
    </g>
</svg>
